<?xml version="1.0" encoding="iso-8859-1"?><!-- Generator: Adobe Illustrator 19.0.0, SVG Export Plug-In . SVG Version: 6.00 Build 0)  --><svg xmlns="http://www.w3.org/2000/svg" xmlns:xlink="http://www.w3.org/1999/xlink" version="1.1" id="Layer_1" x="0px" y="0px" viewBox="0 0 512.13 512.13" style="enable-background:new 0 0 512.13 512.13;" xml:space="preserve">
<path style="fill:#F3705A;" d="M456.664,478.406l-19.2,18.133c-44.8,44.8-176-13.867-293.333-130.133  C28.93,250.14-29.736,118.94,15.064,74.14l18.133-18.133L179.33,202.14l-43.733,43.733c-13.867,13.867,4.267,54.4,40.533,90.667  s76.8,54.4,90.667,40.533l44.8-44.8L456.664,478.406z"/>
<g>
	<path style="fill:#E8EAE9;" d="M317.997,325.873L307.33,336.54l146.133,146.133l10.667-10.667   c13.867-13.867,13.867-36.267,0-50.133l-96-96C354.264,312.006,331.864,312.006,317.997,325.873z"/>
	<path style="fill:#E8EAE9;" d="M40.664,48.54L29.997,59.206L176.13,205.34l10.667-10.667c13.867-13.867,13.867-36.267,0-50.133   l-96-96C76.93,34.673,54.53,34.673,40.664,48.54z"/>
</g>
<g>
	<path style="fill:#FFD15C;" d="M305.197,132.806v109.867c0,11.733,9.6,21.333,21.333,21.333h86.4l64,37.333v-37.333h12.8   c11.733,0,21.333-9.6,21.333-21.333V132.806c0-11.733-9.6-21.333-21.333-21.333H327.597   C314.797,111.473,305.197,121.073,305.197,132.806z"/>
	<path style="fill:#FFD15C;" d="M512.13,132.806v109.867c0,11.733-9.6,21.333-21.333,21.333h-12.8v37.333l-64-37.333h-86.4   c-11.733,0-21.333-9.6-21.333-21.333V132.806c0-11.733,9.6-21.333,21.333-21.333h163.2   C502.53,111.473,512.13,121.073,512.13,132.806z"/>
</g>
<path style="fill:#F7B64C;" d="M418.264,111.473v21.333c0,18.133-14.933,33.067-33.067,33.067h-80v-32  c0-11.733,9.6-21.333,21.333-21.333h91.733V111.473z"/>
<g>
	<circle style="fill:#FFFFFF;" cx="353.197" cy="188.273" r="18.133"/>
	<circle style="fill:#FFFFFF;" cx="464.13" cy="188.273" r="18.133"/>
	<circle style="fill:#FFFFFF;" cx="408.664" cy="188.273" r="18.133"/>
</g>
<path style="fill:#8AD7F8;" d="M407.597,21.873V131.74c0,11.733-9.6,21.333-21.333,21.333h-87.467l-64,37.333v-37.333h-12.8  c-11.733,0-21.333-9.6-21.333-21.333V21.873c0-11.733,9.6-21.333,21.333-21.333h163.2C397.997,0.54,407.597,10.14,407.597,21.873z"/>
<g>
	<circle style="fill:#FFFFFF;" cx="248.664" cy="77.34" r="18.133"/>
	<circle style="fill:#FFFFFF;" cx="304.13" cy="77.34" r="18.133"/>
	<circle style="fill:#FFFFFF;" cx="359.597" cy="77.34" r="18.133"/>
</g>
<g>
</g>
<g>
</g>
<g>
</g>
<g>
</g>
<g>
</g>
<g>
</g>
<g>
</g>
<g>
</g>
<g>
</g>
<g>
</g>
<g>
</g>
<g>
</g>
<g>
</g>
<g>
</g>
<g>
</g>
</svg>