<?xml version="1.0" encoding="iso-8859-1"?><!-- Generator: Adobe Illustrator 19.0.0, SVG Export Plug-In . SVG Version: 6.00 Build 0)  --><svg xmlns="http://www.w3.org/2000/svg" xmlns:xlink="http://www.w3.org/1999/xlink" version="1.1" id="Layer_1" x="0px" y="0px" viewBox="0 0 508 508" style="enable-background:new 0 0 508 508;" xml:space="preserve">
<circle style="fill:#39B39B;" cx="254" cy="254" r="254"/>
<circle style="fill:#FFFFFF;" cx="298.8" cy="194.6" r="66"/>
<g>
	<rect x="143.2" y="210.2" style="fill:#EDF0F2;" width="24.8" height="169"/>
	<rect x="339.2" y="290.6" style="fill:#EDF0F2;" width="24.8" height="88.8"/>
	<rect x="162.8" y="312.4" style="fill:#EDF0F2;" width="182.6" height="22.4"/>
</g>
<path style="fill:#F2CD56;" d="M202.8,311.4L176,300.6c-6.6-2.8-9.8-10.4-7.2-17l0,0c2.8-6.6,10.4-9.8,17-7.2l26.8,10.8  c6.6,2.8,9.8,10.4,7.2,17l0,0C217.2,311,209.4,314.2,202.8,311.4z"/>
<g>
	<rect x="286.6" y="153.2" style="fill:#E65336;" width="24.4" height="82.8"/>
	<rect x="257.4" y="182.4" style="fill:#E65336;" width="82.8" height="24.4"/>
</g>
<g>
</g>
<g>
</g>
<g>
</g>
<g>
</g>
<g>
</g>
<g>
</g>
<g>
</g>
<g>
</g>
<g>
</g>
<g>
</g>
<g>
</g>
<g>
</g>
<g>
</g>
<g>
</g>
<g>
</g>
</svg>