<?xml version="1.0" encoding="iso-8859-1"?><!-- Generator: Adobe Illustrator 19.0.0, SVG Export Plug-In . SVG Version: 6.00 Build 0)  --><svg xmlns="http://www.w3.org/2000/svg" xmlns:xlink="http://www.w3.org/1999/xlink" version="1.1" id="Layer_1" x="0px" y="0px" viewBox="0 0 512 512" style="enable-background:new 0 0 512 512;" xml:space="preserve">
<polygon style="fill:#415A6B;" points="132.267,512 0,512 0,490.667 124.8,490.667 397.867,273.067 512,273.067 512,294.4   405.333,294.4 "/>
<path style="fill:#F3705A;" d="M258.133,288c0,71.467-129.067,213.333-129.067,213.333S0,358.4,0,288s57.6-129.067,129.067-129.067  S258.133,216.533,258.133,288z"/>
<circle style="fill:#FFFFFF;" cx="129.067" cy="288" r="56.533"/>
<path style="fill:#F3705A;" d="M512,107.733c0,59.733-107.733,178.133-107.733,178.133s-107.733-118.4-107.733-178.133  S344.533,0,404.267,0S512,48,512,107.733z"/>
<circle style="fill:#FFFFFF;" cx="404.267" cy="107.733" r="46.933"/>
<g>
</g>
<g>
</g>
<g>
</g>
<g>
</g>
<g>
</g>
<g>
</g>
<g>
</g>
<g>
</g>
<g>
</g>
<g>
</g>
<g>
</g>
<g>
</g>
<g>
</g>
<g>
</g>
<g>
</g>
</svg>