<?xml version="1.0" encoding="iso-8859-1"?><!-- Generator: Adobe Illustrator 19.0.0, SVG Export Plug-In . SVG Version: 6.00 Build 0)  --><svg xmlns="http://www.w3.org/2000/svg" xmlns:xlink="http://www.w3.org/1999/xlink" version="1.1" id="Layer_1" x="0px" y="0px" viewBox="0 0 512.267 512.267" style="enable-background:new 0 0 512.267 512.267;" xml:space="preserve">
<path style="fill:#E8EAE9;" d="M478.933,324.533v-153.6l-147.2-147.2l-147.2,147.2V341.6h277.333  C468.267,335.2,472.533,330.933,478.933,324.533z"/>
<g>
	<rect x="212.267" y="218.933" style="fill:#415A6B;" width="91.733" height="122.667"/>
	<rect x="212.267" y="218.933" style="fill:#415A6B;" width="101.333" height="122.667"/>
</g>
<rect x="222.933" y="229.6" style="fill:#344A5E;" width="78.933" height="112"/>
<path style="fill:#F3705A;" d="M506.667,167.733L344.533,5.6c-7.467-7.467-19.2-7.467-26.667,0L156.8,167.733  c-7.467,7.467-7.467,19.2,0,26.667c7.467,7.467,19.2,7.467,26.667,0L331.733,45.067L480,194.4c7.467,7.467,19.2,7.467,26.667,0  C514.133,186.933,514.133,175.2,506.667,167.733z"/>
<path style="fill:#FFD15C;" d="M496,305.333c-17.067-4.267-51.2,17.067-51.2,17.067c-18.133,0-39.467,13.867-39.467,13.867  c-12.8,0-22.4,5.333-22.4,5.333S372.267,332,336,330.933s-81.067-12.8-81.067-12.8c-14.933-9.6-33.067-12.8-50.133-13.867  c-28.8-1.067-57.6,6.4-82.133,20.267l-12.8,6.4l14.933,118.4c13.867-6.4,73.6-14.933,73.6-14.933s67.2-3.2,98.133-2.133  c30.933,1.067,45.867-19.2,45.867-19.2s53.333-25.6,71.467-32s48-29.867,48-29.867C473.6,345.867,512,320.267,512,320.267  S510.933,308.533,496,305.333z"/>
<path style="fill:#F7B64C;" d="M227.2,389.6l24.533-3.2l12.8-2.133l6.4-1.067c2.133,0,4.267-1.067,6.4-1.067c4.267,0,8.533,0,12.8,0  h12.8c8.533,0,17.067,0,24.533,1.067l0,0c4.267,0,8.533-1.067,12.8-1.067l12.8-1.067l25.6-2.133l0,0c2.133,0,4.267-1.067,6.4-3.2  c2.133-1.067,3.2-3.2,5.333-5.333c2.133-4.267,2.133-8.533,2.133-13.867c0-1.067,0-2.133-1.067-3.2c0-1.067-1.067-2.133-1.067-3.2  c-1.067-2.133-2.133-4.267-3.2-5.333c-1.067-2.133-2.133-3.2-4.267-5.333c-1.067,0-1.067,0-1.067,0l0,0  c1.067,2.133,3.2,3.2,4.267,5.333c1.067,2.133,2.133,3.2,3.2,5.333s1.067,4.267,1.067,6.4c1.067,4.267,0,8.533-2.133,11.733  c-1.067,2.133-2.133,3.2-4.267,4.267c-2.133,1.067-3.2,2.133-5.333,2.133c-8.533,0-17.067,1.067-25.6,1.067l-25.6,1.067l0,0  c-8.533,0-17.067,0-24.533,0h-12.8c-4.267,0-8.533,0-12.8,1.067c-2.133,0-4.267,1.067-6.4,1.067l-6.4,1.067l-12.8,2.133L227.2,389.6  z"/>
<path style="fill:#F3F3F3;" d="M350.933,359.733c0,5.333,1.067,8.533,6.4,11.733c5.333,2.133,16,2.133,18.133,2.133  c10.667,0,10.667-27.733,0-27.733c-4.267,0-13.867-1.067-17.067-1.067C354.133,345.867,350.933,353.333,350.933,359.733z"/>
<polygon style="fill:#E8EAE9;" points="54.4,329.867 75.733,470.667 136.533,461.067 116.267,320.267 "/>
<polygon style="fill:#415A6B;" points="0,319.2 28.8,512.267 120.533,498.4 91.733,305.333 "/>
<path style="fill:#F3F3F3;" d="M486.4,336.267c0,0-4.267-6.4-1.067-10.667c3.2-3.2,21.333-9.6,25.6-5.333"/>
<rect x="338.133" y="218.933" style="fill:#415A6B;" width="106.667" height="96"/>
<g>
	<rect x="348.8" y="229.6" style="fill:#8AD7F8;" width="36.267" height="73.6"/>
	<rect x="396.8" y="229.6" style="fill:#8AD7F8;" width="36.267" height="73.6"/>
</g>
<g>
</g>
<g>
</g>
<g>
</g>
<g>
</g>
<g>
</g>
<g>
</g>
<g>
</g>
<g>
</g>
<g>
</g>
<g>
</g>
<g>
</g>
<g>
</g>
<g>
</g>
<g>
</g>
<g>
</g>
</svg>