<?xml version="1.0" encoding="iso-8859-1"?><!-- Generator: Adobe Illustrator 19.0.0, SVG Export Plug-In . SVG Version: 6.00 Build 0)  --><svg xmlns="http://www.w3.org/2000/svg" xmlns:xlink="http://www.w3.org/1999/xlink" version="1.1" id="Layer_1" x="0px" y="0px" viewBox="0 0 512 512" style="enable-background:new 0 0 512 512;" xml:space="preserve">
<path style="fill:#8AD7F8;" d="M256,512C114.133,512,0,397.867,0,256S114.133,0,256,0s256,114.133,256,256S397.867,512,256,512z"/>
<g>
	<path style="fill:#F3F3F3;" d="M256,0c-26.667,0-53.333,4.267-77.867,11.733c1.067,1.067,2.133,3.2,1.067,4.267   c-3.2,5.333,0,8.533,0,13.867c0,2.133,2.133,2.133,4.267,0c1.067-2.133,2.133-3.2,3.2-5.333c2.133,0,4.267-1.067,5.333-1.067   c1.067,0,2.133,2.133,3.2,2.133c-1.067,1.067-1.067,2.133-2.133,3.2c-1.067,4.267,0,9.6,3.2,10.667c4.267,0,6.4,2.133,10.667,3.2   c2.133,1.067,4.267,1.067,6.4,1.067c-1.067,1.067-1.067,2.133-2.133,2.133c-4.267,8.533-12.8,12.8-20.267,8.533   c-5.333-3.2-11.733-6.4-16-11.733c-1.067-1.067-4.267-1.067-5.333-2.133c-2.133,0-2.133,1.067-3.2,3.2   c0,1.067-4.267,1.067-4.267,1.067c-1.067-4.267-6.4-3.2-7.467-8.533c0-1.067-1.067-2.133-2.133-3.2c-3.2-1.067-5.333-3.2-6.4-6.4   c3.2-1.067,4.267-3.2,4.267-5.333C116.267,38.4,85.333,61.867,60.8,90.667c0,2.133,1.067,4.267,2.133,5.333   c1.067,2.133,3.2,4.267,6.4,3.2c3.2-1.067,6.4,0,8.533,1.067c2.133,1.067,4.267,1.067,6.4,1.067c3.2-1.067,5.333-1.067,8.533-1.067   c3.2,0,6.4,3.2,6.4,5.333c-1.067,2.133,0,3.2,2.133,3.2s5.333,3.2,5.333,5.333c-1.067,3.2-2.133,6.4-4.267,8.533   c-3.2,3.2-4.267,7.467-3.2,10.667c1.067,4.267,1.067,8.533,0,13.867c-1.067,4.267-2.133,7.467-3.2,11.733   c0,1.067-2.133,2.133-3.2,4.267c-3.2,3.2-6.4,6.4-8.533,10.667c-1.067,1.067-1.067,3.2-1.067,5.333c0,5.333,0,11.733-2.133,18.133   c-2.133,5.333-2.133,10.667-2.133,14.933c1.067,3.2,1.067,6.4-1.067,9.6c-3.2,2.133-2.133,4.267,2.133,4.267   c2.133,0,4.267,0,5.333,0c3.2,1.067,6.4,2.133,10.667,1.067c7.467-2.133,13.867-6.4,20.267-11.733   c1.067-1.067,2.133-2.133,2.133-3.2c1.067-4.267,3.2-5.333,6.4-4.267c2.133,0,4.267-1.067,5.333-4.267   c1.067-2.133,1.067-4.267,1.067-7.467c0-1.067,1.067-2.133,1.067-2.133c3.2-1.067,6.4-5.333,10.667-5.333s8.533,0,11.733-5.333   c2.133-4.267,3.2-8.533,4.267-12.8c2.133-6.4,2.133-12.8,8.533-17.067c2.133-1.067,3.2-3.2,5.333-4.267   c2.133-1.067,4.267-2.133,7.467-2.133c-1.067-1.067-1.067-2.133-2.133-3.2c6.4,1.067,12.8,0,19.2-4.267   c5.333-3.2,10.667-6.4,14.933-10.667c1.067-1.067,2.133-3.2,4.267-5.333c-5.333-1.067-9.6-2.133-14.933-3.2   c-4.267,0-6.4-3.2-3.2-7.467c1.067,0,2.133,1.067,3.2,1.067c6.4,0,12.8,0,20.267,0c1.067,0,2.133,0,2.133,0   c3.2-2.133,5.333-1.067,8.533-1.067c2.133,0,5.333,0,7.467-3.2c1.067,2.133,3.2,2.133,4.267,0c1.067-1.067,2.133-1.067,3.2-2.133   c1.067-1.067,3.2-1.067,3.2-2.133c0-2.133,0-4.267-1.067-5.333c-4.267,0-4.267-2.133-3.2-4.267c0-1.067,0-1.067,1.067-3.2   c-2.133,1.067-3.2,1.067-4.267,2.133c-4.267,2.133-8.533,2.133-9.6,0s-2.133-5.333-2.133-7.467c1.067-3.2-1.067-5.333-1.067-8.533   c0-1.067,0-2.133,0-3.2c1.067-2.133,0-3.2-1.067-4.267c-1.067-1.067-2.133-3.2-3.2-4.267l1.067-1.067   c1.067,0,2.133,1.067,3.2,1.067c3.2,0,3.2,2.133,3.2,3.2s0,2.133,0,3.2c3.2-1.067,4.267,2.133,4.267,4.267c0,3.2,0,6.4,2.133,8.533   c2.133,2.133,3.2,4.267,7.467,4.267c1.067,0,2.133,1.067,2.133,2.133c-1.067,3.2,1.067,3.2,3.2,4.267   c1.067,1.067,2.133,1.067,4.267,2.133c5.333,2.133,9.6,4.267,13.867,6.4c2.133,3.2,3.2,5.333,5.333,7.467c0,0-1.067,0-2.133,1.067   c0,0,0,0,0,1.067c2.133,1.067,4.267,2.133,5.333,3.2c-2.133,0-3.2,1.067-5.333,1.067c0,0,0,1.067-1.067,1.067   c1.067,1.067,2.133,3.2,4.267,4.267c1.067,0,2.133-1.067,4.267-2.133c0,1.067,0,1.067,0,2.133c-4.267,3.2-5.333,8.533-6.4,13.867   c-1.067,6.4-1.067,12.8-2.133,19.2c0,2.133,0,3.2,0,5.333c1.067,0,3.2-1.067,4.267-1.067l0,0c4.267-3.2,9.6-5.333,10.667-10.667   c1.067-2.133,1.067-2.133,3.2-3.2c6.4-1.067,12.8-3.2,19.2-4.267c2.133,0,4.267-1.067,6.4-2.133c0,0,0,0-1.067,0   c2.133-2.133,4.267-3.2,5.333-4.267c2.133,1.067,3.2,1.067,4.267,1.067c-1.067,2.133-2.133,4.267-3.2,6.4h1.067   c1.067-1.067,2.133-2.133,2.133-3.2c1.067,3.2,1.067,6.4,1.067,9.6c0,0,0,1.067,1.067,1.067c0,2.133,2.133,4.267,1.067,5.333   c-2.133,4.267,1.067,5.333,3.2,6.4c2.133,2.133,2.133,3.2,1.067,6.4c-1.067,2.133-1.067,3.2-2.133,5.333   c0,3.2-1.067,5.333-4.267,7.467c-2.133,2.133-5.333,5.333-2.133,8.533c1.067,1.067,1.067,3.2,0,4.267   c-2.133,6.4-1.067,11.733,3.2,17.067c2.133-4.267,2.133-12.8,0-16c-2.133-4.267,1.067-7.467,0-11.733c0,0,1.067-1.067,2.133-1.067   c2.133-2.133,5.333-2.133,4.267-5.333c0,0,1.067-1.067,2.133-1.067c1.067,0,1.067,1.067,2.133,2.133   c-1.067,1.067-2.133,1.067-2.133,2.133c2.133,4.267,3.2,8.533,5.333,12.8h1.067c0,0,0-1.067,1.067-1.067   c0-1.067,1.067-2.133,1.067-3.2c0,1.067,1.067,2.133,1.067,3.2c1.067,2.133,1.067,5.333,5.333,4.267c3.2,0,5.333-2.133,6.4-4.267   c2.133-4.267,0-8.533-1.067-12.8c-1.067-4.267-1.067-5.333,3.2-7.467c1.067,0,2.133-1.067,4.267,0c1.067,1.067,3.2,0,3.2,0   c1.067,3.2,4.267,3.2,6.4,4.267c2.133,2.133,4.267,1.067,6.4,0c1.067,1.067,2.133,2.133,3.2,2.133c4.267,0,9.6,1.067,13.867,1.067   c3.2,0,6.4-2.133,9.6-3.2c4.267-2.133,5.333-5.333,2.133-9.6v-1.067c1.067,0,2.133,1.067,4.267,1.067c0-3.2-1.067-6.4-1.067-9.6   c2.133,0,3.2,0,5.333,0s3.2,1.067,4.267,1.067c0,0,0-1.067,1.067-1.067c-1.067-1.067-3.2-4.267-4.267-4.267   c-6.4-1.067-10.667-5.333-9.6-10.667c2.133,0,3.2,0,5.333,0c2.133,5.333,8.533,3.2,12.8,5.333c-1.067,1.067-2.133,2.133-4.267,3.2   c4.267,0,7.467,1.067,9.6,5.333c1.067,1.067,0,3.2,0,4.267c0,2.133,3.2,3.2-1.067,5.333c-2.133,1.067-2.133,5.333,0,6.4   c2.133,1.067,4.267,2.133,5.333,1.067c1.067,0,2.133-3.2,2.133-4.267c0-2.133,0-5.333-1.067-7.467c1.067,0,2.133,1.067,3.2,1.067   s3.2,0,4.267,0c3.2-2.133,5.333-1.067,8.533,1.067c2.133,1.067,4.267,3.2,6.4,3.2c6.4,0,12.8-1.067,19.2-1.067H480   c0-4.267,4.267-4.267,6.4-5.333c1.067-1.067,2.133-2.133,2.133-3.2c0-1.067-2.133-4.267-3.2-4.267   c-4.267-1.067-5.333-4.267-6.4-7.467c1.067,0,3.2,1.067,4.267,1.067C444.8,58.667,357.333,0,256,0z"/>
	<path style="fill:#F3F3F3;" d="M502.4,306.133c1.067-3.2,2.133-6.4,3.2-9.6c0,0-1.067,0-1.067-1.067   c-1.067,1.067-2.133,2.133-2.133,3.2c-1.067,3.2-2.133,7.467-3.2,10.667s-1.067,6.4-1.067,10.667c0,1.067,0,3.2,0,4.267h-1.067   c0-1.067,0-2.133,0-3.2c-3.2-1.067-4.267,0-4.267,3.2c0,3.2,0,6.4-2.133,7.467c-2.133,1.067-3.2,2.133-5.333,3.2   c-4.267,4.267-8.533,7.467-12.8,11.733c-5.333-1.067-6.4,0-7.467,4.267c-1.067,0-3.2,0-4.267-1.067v1.067   c-1.067,0-3.2,1.067-4.267,1.067c-2.133,0-4.267,1.067-5.333,1.067c-4.267-1.067-8.533-1.067-12.8,0c-1.067,0-3.2,0-4.267-1.067   v-1.067c-2.133,0-4.267,0-6.4,1.067c-2.133,1.067-3.2,3.2-5.333,1.067c-2.133-1.067-5.333-2.133-6.4-4.267   c-3.2-5.333-7.467-8.533-12.8-10.667c-1.067,0-3.2,0-5.333,0c-3.2,0-7.467-1.067-10.667-2.133c-1.067,0-2.133,0-2.133,1.067   c-3.2,4.267-6.4,3.2-9.6,2.133c-5.333-1.067-10.667-3.2-17.067-2.133c-1.067,0-2.133,1.067-3.2,1.067   c1.067,1.067,2.133,1.067,3.2,2.133c5.333,1.067,9.6,1.067,14.933,2.133v1.067c-2.133,0-4.267,1.067-7.467,1.067   c-2.133,0-4.267-1.067-6.4-1.067c-4.267,0-7.467,0-11.733,1.067c-2.133,0-3.2,0-5.333,0c-3.2,0-6.4,1.067-9.6-1.067   c-1.067-1.067-3.2-2.133-5.333-2.133c-2.133,0-4.267,1.067-6.4,2.133c-3.2,1.067-6.4,3.2-9.6,4.267   c-3.2,2.133-5.333,3.2-7.467,5.333c-1.067,2.133-2.133,3.2-4.267,3.2c-6.4,1.067-11.733,3.2-17.067,7.467c0,0-1.067,0-2.133,0   c-3.2,0-6.4-1.067-8.533,0c-3.2,0-6.4,2.133-10.667,2.133c-2.133,0-3.2,1.067-3.2,3.2c0,1.067-1.067,3.2-2.133,4.267   c-3.2,0-6.4,1.067-8.533-1.067c-4.267-3.2-6.4-7.467-5.333-13.867c0-3.2-1.067-6.4-4.267-8.533c-1.067,0-2.133,0-3.2,0   c0-1.067-1.067-3.2-1.067-4.267c-1.067-1.067-2.133-2.133-4.267-3.2c-4.267-1.067-7.467-1.067-11.733-2.133   c-4.267,3.2-8.533,1.067-13.867,1.067c-3.2,0-7.467,1.067-10.667,2.133c-3.2,1.067-7.467,3.2-10.667,1.067   c-4.267-4.267-8.533-8.533-11.733-12.8c-4.267-4.267-7.467-10.667-12.8-14.933c-2.133-2.133-4.267-6.4-5.333-9.6   c-1.067-2.133-2.133-4.267-3.2-5.333c-1.067-1.067-1.067-1.067-2.133-2.133c-1.067-3.2-4.267-3.2-6.4-1.067   c-2.133-4.267-3.2-8.533-5.333-12.8c-1.067,0-1.067,1.067-2.133,1.067l-3.2-2.133c2.133-3.2,1.067-6.4-2.133-6.4   c-3.2,0-4.267-1.067-5.333-2.133c-1.067-1.067-3.2-2.133-5.333-2.133s-3.2,2.133-1.067,5.333c-1.067,1.067-3.2,1.067-4.267,2.133   c1.067-2.133,1.067-3.2,2.133-4.267c-8.533,2.133-11.733,5.333-10.667,9.6c3.2-1.067,6.4-2.133,9.6-2.133   c0,1.067-1.067,2.133-1.067,3.2c3.2,0,4.267,1.067,4.267,3.2c0,3.2,0,7.467,0,10.667c2.133-1.067,4.267-1.067,6.4-2.133   c0,4.267,1.067,8.533,1.067,12.8c1.067,0,1.067,0,1.067,0c1.067,1.067,3.2,1.067,4.267,2.133c-1.067,1.067-2.133,1.067-2.133,2.133   s0,3.2,0,4.267c0,0,2.133,1.067,3.2,1.067c-2.133,3.2-4.267,7.467-6.4,10.667c-1.067,2.133-1.067,4.267,2.133,5.333   c1.067,0,1.067,0,2.133,0c0,1.067,0,2.133,0,3.2c2.133,0,3.2-1.067,4.267-1.067s3.2-1.067,4.267-1.067s1.067,0,2.133,0   l-1.067,1.067c-1.067,1.067-2.133,1.067-3.2,2.133c-2.133-2.133-5.333-1.067-9.6,3.2c-2.133,2.133,0,4.267,1.067,6.4   c1.067,3.2,1.067,7.467,2.133,10.667c0,0,0,0,0,1.067c-2.133,3.2-1.067,8.533,1.067,10.667c3.2,2.133,3.2,4.267,2.133,7.467   c-1.067,2.133-2.133,4.267-2.133,6.4c-1.067,3.2-4.267,5.333-2.133,10.667c2.133,6.4,5.333,12.8,10.667,17.067   c1.067,1.067,2.133,2.133,2.133,2.133c1.067,4.267,1.067,7.467,1.067,11.733c0,3.2,4.267,8.533,7.467,8.533   c1.067,0,2.133,0,2.133-1.067c2.133-3.2,4.267-2.133,7.467-3.2c2.133-1.067,4.267-2.133,6.4-3.2c1.067-1.067,2.133-3.2,3.2-4.267   c1.067-1.067,1.067-3.2,2.133-4.267c0-1.067,1.067-1.067,2.133-1.067l0,0c0,1.067,0,2.133,0,3.2   c2.133-1.067,4.267-2.133,5.333-2.133c2.133,0,2.133-1.067,2.133-3.2c-1.067-4.267,2.133-6.4,4.267-8.533c0-1.067,3.2,0,4.267,0   c0,2.133,1.067,4.267,0,6.4c0,3.2,3.2,3.2,4.267,4.267c4.267,3.2,10.667,3.2,14.933-2.133c2.133-3.2,5.333-5.333,10.667-4.267   c2.133,0,3.2-1.067,5.333-2.133c1.067-1.067,2.133-1.067,4.267-2.133c0,1.067,0,1.067,0,1.067c2.133,0,4.267,0,6.4-1.067   c0-3.2,0-5.333,4.267-6.4c1.067,0,2.133-1.067,2.133-2.133c0,0,1.067-1.067,2.133-1.067c2.133,0,3.2-2.133,4.267-3.2   c3.2-3.2-1.067-3.2-1.067-4.267c0-1.067,0-1.067-1.067-3.2c2.133,1.067,3.2,2.133,5.333,3.2c1.067,0,2.133,1.067,2.133,0   c2.133-1.067,3.2-8.533,2.133-10.667c-1.067-3.2,0-4.267,2.133-5.333c1.067,0,2.133-1.067,3.2-2.133   c1.067-1.067,1.067-3.2,3.2-5.333c2.133-2.133,7.467-2.133,10.667,0c2.133,2.133,3.2,3.2,5.333,5.333   c1.067,0,2.133,1.067,2.133,1.067c2.133-1.067,4.267-2.133,5.333-4.267c2.133-1.067,3.2-3.2,4.267-4.267   c2.133,2.133,4.267,3.2,5.333,5.333c3.2,3.2,3.2,4.267,7.467,1.067c0-1.067-1.067-2.133-1.067-3.2c0-2.133-1.067-4.267,0-6.4   c1.067-2.133,3.2-4.267,4.267-5.333c4.267-2.133,9.6-2.133,13.867,1.067c2.133,1.067,3.2,2.133,4.267,3.2   c3.2,3.2,7.467,4.267,7.467,9.6c0,3.2,0,6.4-1.067,8.533c-1.067,2.133-2.133,4.267-3.2,5.333c-1.067,1.067-3.2,1.067-4.267,2.133   c-1.067,2.133-2.133,4.267-4.267,6.4c-4.267,3.2-8.533,6.4-12.8,9.6c4.267,3.2,5.333,8.533,3.2,14.933   c-1.067,2.133,0,4.267,1.067,6.4c1.067,2.133,3.2,3.2,3.2,5.333c0,3.2,0,6.4,0,8.533c0,2.133-1.067,3.2-2.133,4.267   c0,1.067-1.067,1.067-1.067,2.133c0,1.067,1.067,3.2,2.133,4.267c1.067,3.2-2.133,12.8-5.333,14.933l0,0   c0-1.067-1.067-2.133-2.133-3.2c-2.133,6.4-4.267,10.667-6.4,17.067c2.133,0,2.133,0,3.2,0c0-6.4,5.333-9.6,9.6-6.4   c0,1.067-1.067,2.133-1.067,3.2c6.4,0,6.4-6.4,9.6-10.667c-1.067,3.2-1.067,6.4-2.133,7.467c-3.2,4.267-6.4,7.467-9.6,11.733   c-1.067,1.067-1.067,2.133-2.133,4.267c-1.067,2.133-2.133,4.267-3.2,7.467c0,1.067-1.067,2.133,0,2.133   c1.067,1.067,2.133,2.133,3.2,2.133c2.133,0,5.333-1.067,7.467-2.133c3.2-1.067,5.333-3.2,8.533-4.267   c1.067,1.067,1.067,2.133,2.133,2.133h1.067c3.2-1.067,6.4-2.133,10.667-3.2V492.8c0-1.067,0-2.133,0-3.2   c2.133-2.133,4.267-4.267,6.4-6.4c4.267,4.267,4.267,4.267,8.533,1.067c0,0,1.067,0,2.133,0c2.133-1.067,4.267-3.2,6.4-4.267   c2.133-2.133,4.267-4.267,6.4-6.4c5.333-2.133,10.667-4.267,16-6.4c0,0,0,1.067,1.067,1.067c0,2.133-1.067,4.267-1.067,6.4   c3.2-2.133,6.4-4.267,9.6-5.333c0-1.067,0-1.067,0-2.133c0-2.133,2.133-3.2,4.267-3.2c1.067,0,2.133,0,3.2,1.067L400,464   c0-1.067,0-2.133,0-2.133c2.133-1.067,4.267-1.067,6.4-2.133l0,0c3.2-2.133,6.4-4.267,8.533-6.4l0,0c-1.067,0-2.133,0-3.2,0   c-1.067,1.067-2.133,2.133-3.2,3.2h-1.067c0-2.133,1.067-4.267,0-6.4c0-1.067-1.067-2.133,0-3.2c1.067,0,2.133,1.067,3.2,2.133   c1.067,3.2,3.2,2.133,4.267,0C416,448,416,446.933,416,445.867c0,0,0,0-1.067,0c-1.067,1.067-2.133,2.133-3.2,2.133   c0,0,0-1.067-1.067-1.067c3.2-4.267,6.4-8.533,9.6-11.733c3.2-3.2,7.467-6.4,11.733-9.6c-1.067,3.2-2.133,6.4-5.333,6.4   c-1.067,0-2.133,2.133-3.2,3.2c0,1.067,0,2.133,1.067,4.267c3.2-2.133,6.4-3.2,8.533-3.2c2.133-2.133,4.267-4.267,5.333-5.333   c0,0,0,0,0-1.067h1.067c6.4-6.4,12.8-13.867,18.133-21.333c-1.067,0-1.067-1.067-2.133-1.067c-1.067,1.067-2.133,2.133-2.133,3.2   c0-1.067-1.067-1.067-1.067-2.133c-1.067,0-2.133,0-3.2,0c1.067-2.133,2.133-3.2,4.267-4.267c3.2-2.133,6.4-3.2,7.467-6.4   c3.2-5.333,5.333-8.533,10.667-10.667c0,0,0,0,1.067,0c1.067-1.067,1.067-2.133,2.133-3.2c1.067-3.2,3.2-6.4,5.333-8.533   c11.733-22.4,21.333-46.933,26.667-73.6C505.6,308.267,504.533,308.267,502.4,306.133z"/>
</g>
<path style="fill:#344A5E;" d="M440.533,428.8l37.333,11.733c10.667,3.2,19.2,12.8,22.4,23.467L512,512h-94.933L440.533,428.8z"/>
<path style="fill:#4EC0AA;" d="M366.933,428.8L329.6,440.533c-10.667,3.2-19.2,12.8-22.4,23.467l-11.733,48H390.4L366.933,428.8z"/>
<g>
	
		<ellipse transform="matrix(-0.1927 0.9813 -0.9813 -0.1927 892.9834 6.0671)" style="fill:#FFD15C;" cx="443.996" cy="370.374" rx="14.934" ry="9.6"/>
	
		<ellipse transform="matrix(-0.1927 -0.9813 0.9813 -0.1927 70.6854 798.273)" style="fill:#FFD15C;" cx="363.723" cy="370.059" rx="14.934" ry="9.6"/>
</g>
<rect x="376.533" y="453.333" style="fill:#CED6E0;" width="53.333" height="46.933"/>
<g>
	<polygon style="fill:#F3705A;" points="413.867,467.2 424.533,456.533 403.2,436.267 381.867,456.533 393.6,467.2  "/>
	<polygon style="fill:#F3705A;" points="424.533,512 413.867,467.2 393.6,467.2 382.933,512  "/>
</g>
<path style="fill:#F7B64C;" d="M375.467,401.067v12.8c6.4,9.6,16,17.067,28.8,22.4c10.667-4.267,21.333-11.733,28.8-22.4v-12.8  H375.467z"/>
<polygon style="fill:#F3F3F3;" points="432,413.867 403.2,436.267 425.6,467.2 440.533,430.933 "/>
<polygon style="fill:#415A6B;" points="442.667,512 460.8,475.733 442.667,462.933 466.133,457.6 436.267,422.4 414.933,512 "/>
<polygon style="fill:#F3F3F3;" points="375.467,413.867 403.2,436.267 380.8,467.2 366.933,430.933 "/>
<g>
	<polygon style="fill:#415A6B;" points="345.6,475.733 364.8,512 392.533,512 371.2,422.4 341.333,457.6 364.8,462.933  "/>
	<ellipse style="fill:#415A6B;" cx="409.6" cy="342.4" rx="41.6" ry="52.267"/>
	<ellipse style="fill:#415A6B;" cx="384" cy="343.467" rx="27.733" ry="44.8"/>
</g>
<path style="fill:#FFD15C;" d="M391.467,325.333c11.733,14.933,29.867,24.533,54.4,25.6c0,1.067,0,1.067,0,2.133  C448,390.4,428.8,422.4,403.2,422.4c-25.6,0-44.8-32-42.667-69.333c0-7.467,2.133-14.933,4.267-22.4  C374.4,330.667,384,328.533,391.467,325.333z"/>
<g>
	<path style="fill:#344A5E;" d="M145.067,428.8l37.333,11.733c10.667,3.2,19.2,12.8,22.4,23.467l11.733,48H121.6L145.067,428.8z"/>
	<path style="fill:#344A5E;" d="M71.467,428.8l-37.333,11.733c-10.667,3.2-19.2,12.8-22.4,23.467L0,512h94.933L71.467,428.8z"/>
</g>
<g>
	
		<ellipse transform="matrix(-0.1927 0.9813 -0.9813 -0.1927 541.3258 295.5513)" style="fill:#FFD15C;" cx="149.084" cy="370.457" rx="14.934" ry="9.6"/>
	
		<ellipse transform="matrix(-0.1927 -0.9813 0.9813 -0.1927 -281.7888 508.4067)" style="fill:#FFD15C;" cx="68.245" cy="370.121" rx="14.934" ry="9.6"/>
</g>
<rect x="82.133" y="453.333" style="fill:#CED6E0;" width="53.333" height="46.933"/>
<g>
	<polygon style="fill:#F3705A;" points="118.4,467.2 130.133,456.533 108.8,436.267 87.467,456.533 98.133,467.2  "/>
	<polygon style="fill:#F3705A;" points="129.067,512 118.4,467.2 98.133,467.2 87.467,512  "/>
</g>
<path style="fill:#F7B64C;" d="M80,401.067v12.8c6.4,9.6,16,17.067,28.8,22.4c10.667-4.267,21.333-11.733,28.8-22.4v-12.8H80z"/>
<polygon style="fill:#F3F3F3;" points="136.533,413.867 108.8,436.267 131.2,467.2 145.067,430.933 "/>
<polygon style="fill:#415A6B;" points="147.2,512 166.4,475.733 147.2,462.933 170.667,457.6 140.8,422.4 119.467,512 "/>
<polygon style="fill:#F3F3F3;" points="80,413.867 108.8,436.267 86.4,467.2 71.467,430.933 "/>
<g>
	<polygon style="fill:#415A6B;" points="51.2,475.733 69.333,512 97.067,512 75.733,422.4 45.867,457.6 69.333,462.933  "/>
	<ellipse style="fill:#415A6B;" cx="115.2" cy="342.4" rx="41.6" ry="52.267"/>
	<ellipse style="fill:#415A6B;" cx="88.533" cy="343.467" rx="27.733" ry="44.8"/>
</g>
<path style="fill:#FFD15C;" d="M96,325.333c11.733,14.933,29.867,24.533,54.4,25.6c0,1.067,0,1.067,0,2.133  c2.133,37.333-17.067,69.333-42.667,69.333s-44.8-32-42.667-69.333c0-7.467,2.133-14.933,4.267-22.4  C80,330.667,88.533,328.533,96,325.333z"/>
<rect x="220.8" y="435.2" style="fill:#CED6E0;" width="70.4" height="62.933"/>
<path style="fill:#F3705A;" d="M269.867,454.4l13.867,57.6h-54.4l13.867-57.6l-14.933-13.867c0,0,18.133-27.733,28.8-27.733  c9.6,0,28.8,27.733,28.8,27.733L269.867,454.4z"/>
<path style="fill:#F7B64C;" d="M217.6,364.8v17.067c9.6,12.8,21.333,23.467,38.4,29.867c14.933-6.4,27.733-16,38.4-29.867V364.8  H217.6z"/>
<g>
	<path style="fill:#FFD15C;" d="M322.133,318.933c-2.133,11.733-9.6,21.333-16,20.267c-6.4-1.067-9.6-11.733-7.467-24.533   c2.133-12.8,9.6-21.333,16-20.267C322.133,295.467,324.267,306.133,322.133,318.933z"/>
	<path style="fill:#FFD15C;" d="M189.867,318.933c2.133,11.733,9.6,21.333,16,20.267c6.4-1.067,9.6-11.733,7.467-24.533   c-2.133-12.8-9.6-21.333-16-20.267C189.867,295.467,187.733,306.133,189.867,318.933z"/>
</g>
<path style="fill:#415A6B;" d="M305.067,338.133c8.533-21.333,12.8-43.733,12.8-58.667c0-35.2-27.733-62.933-62.933-62.933  S192,244.267,192,279.467c0,13.867,5.333,37.333,12.8,58.667H305.067z"/>
<g>
	<path style="fill:#344A5E;" d="M401.067,512l-4.267-35.2c-2.133-20.267-16-38.4-34.133-46.933L307.2,402.133L275.2,512H401.067z"/>
	<path style="fill:#344A5E;" d="M236.8,512l-30.933-109.867L150.4,429.867c-19.2,8.533-32,26.667-34.133,46.933l-5.333,35.2H236.8z"/>
</g>
<path style="fill:#FFD15C;" d="M276.267,263.467c-17.067,13.867-39.467,23.467-67.2,23.467c-2.133,0-5.333,0-7.467,0  c-1.067,7.467-3.2,14.933-3.2,22.4c0,43.733,25.6,78.933,57.6,78.933s57.6-35.2,57.6-78.933c0-10.667-2.133-20.267-4.267-28.8  C296.533,276.267,285.867,270.933,276.267,263.467z"/>
<path style="fill:#F3F3F3;" d="M294.4,382.933C283.733,396.8,270.933,406.4,256,412.8c21.333,18.133,28.8,32,29.867,41.6l19.2-48  L294.4,382.933z"/>
<polygon style="fill:#415A6B;" points="309.333,512 345.6,459.733 317.867,443.733 348.8,435.2 300.8,396.8 275.2,512 "/>
<path style="fill:#F3F3F3;" d="M217.6,382.933C228.267,396.8,241.067,406.4,256,412.8c-21.333,18.133-28.8,32-29.867,41.6l-19.2-48  L217.6,382.933z"/>
<polygon style="fill:#415A6B;" points="202.667,512 166.4,459.733 194.133,443.733 163.2,435.2 211.2,396.8 236.8,512 "/>
<g>
</g>
<g>
</g>
<g>
</g>
<g>
</g>
<g>
</g>
<g>
</g>
<g>
</g>
<g>
</g>
<g>
</g>
<g>
</g>
<g>
</g>
<g>
</g>
<g>
</g>
<g>
</g>
<g>
</g>
</svg>